<svg xmlns="http://www.w3.org/2000/svg" xmlns:xlink="http://www.w3.org/1999/xlink" width="985.652" height="238.679" version="1.1" viewBox="0 0 26409.17 6395.06" xml:space="preserve" style="shape-rendering:geometricPrecision;text-rendering:geometricPrecision;image-rendering:optimizeQuality;fill-rule:evenodd;clip-rule:evenodd"><defs><style type="text/css">.str0{stroke:#2b2a29;stroke-miterlimit:22.9256}.str0,.str1{stroke-width:2.53}.str1,.str2{stroke-miterlimit:22.9256}.str1{stroke:#1f1b20}.str2{stroke:#2b2a29;stroke-width:7.72}.fil11,.fil6{fill:none}.fil5,.fil9{fill:#fefefe}.fil2,.fil7{fill:#2b2a29}.fil8{fill:#e31e24}.fil0{fill:#000}.fil3{fill:#077187}.fil4{fill:#1298b3}.fil1{fill:#fff;fill-rule:nonzero}.fil10{fill:#2b2a29;fill-opacity:.101961}</style></defs><rect width="30076.34" height="21266.1" x="-1998.81" y="-5670.96" class="fil0"/><g id="Layer_x0020_1"><metadata id="CorelCorpID_0Corel-Layer"/><path d="M9882.86 4590.64c-45.25,0 -82.77,-12.51 -112.53,-37.51 -29.77,-25.01 -44.66,-58.95 -44.66,-101.81l0 -2511.46c0,-40.49 13.09,-73.83 39.29,-100.03 26.2,-26.2 59.55,-39.3 100.03,-39.3l868.11 0c142.9,0 272.1,30.37 387.62,91.1 115.51,60.73 207.2,143.5 275.08,248.29 67.87,104.79 101.81,226.26 101.81,364.4 0,128.61 -34.53,242.93 -103.61,342.95 -69.06,100.03 -159.57,176.25 -271.51,228.64 159.57,42.87 288.18,123.25 385.83,241.15 97.65,117.89 146.47,267.34 146.47,448.34 0,161.96 -36.91,304.85 -110.75,428.7 -73.83,123.84 -175.65,220.89 -305.45,291.15 -129.79,70.26 -278.06,105.39 -444.78,105.39l-910.98 0zm121.46 -267.93l789.52 0c114.32,0 215.55,-22.63 303.67,-67.88 88.11,-45.26 157.19,-109.56 207.2,-192.91 50.02,-83.36 75.02,-182.2 75.02,-296.52 0,-107.17 -25,-200.65 -75.02,-280.44 -50.02,-79.79 -119.09,-141.7 -207.2,-185.76 -88.12,-44.06 -189.35,-66.1 -303.67,-66.1l-789.52 0 0 1089.61zm0 -1357.55l728.79 0c142.9,0 260.79,-40.49 353.68,-121.46 92.88,-80.98 139.33,-194.11 139.33,-339.39 0,-142.9 -46.45,-251.26 -139.33,-325.1 -92.88,-73.83 -210.78,-110.75 -353.68,-110.75l-728.79 0 0 896.69z" class="fil1"/><path id="1" d="M12369.32 4590.64c-42.88,0 -76.81,-12.51 -101.81,-37.51 -25.01,-25.01 -37.52,-58.95 -37.52,-101.81l0 -1675.5c0,-42.88 12.51,-76.81 37.52,-101.81 25,-25.01 58.94,-37.52 101.81,-37.52 40.49,0 73.24,12.51 98.24,37.52 25.01,25 37.51,58.94 37.51,101.81l0 1675.5c0,42.87 -12.5,76.8 -37.51,101.81 -25,25 -57.75,37.51 -98.24,37.51zm-3.57 -2325.68c-52.4,0 -97.65,-19.06 -135.76,-57.17 -38.1,-38.11 -57.16,-84.55 -57.16,-139.32 0,-59.55 19.65,-106.58 58.95,-141.12 39.29,-34.53 85.15,-51.8 137.54,-51.8 50.02,0 94.66,17.27 133.97,51.8 39.3,34.53 58.95,81.57 58.95,141.12 0,54.78 -19.06,101.22 -57.17,139.32 -38.11,38.11 -84.55,57.17 -139.32,57.17z" class="fil1"/><path id="2" d="M15845.34 4590.64c-40.49,0 -73.83,-12.51 -100.03,-37.51 -26.2,-25.01 -39.29,-57.75 -39.29,-98.25l0 -1028.87c0,-169.1 -44.06,-303.06 -132.18,-401.9 -88.12,-98.84 -201.25,-148.26 -339.39,-148.26 -147.67,0 -268.53,49.42 -362.61,148.26 -94.08,98.84 -139.92,230.42 -137.54,394.76l-246.5 0c2.39,-159.58 36.92,-300.1 103.61,-421.55 66.68,-121.46 158.38,-215.54 275.08,-282.22 116.7,-66.69 248.88,-100.03 396.54,-100.03 140.52,0 264.97,33.34 373.32,100.03 108.37,66.68 192.91,160.76 253.65,282.22 60.73,121.46 91.1,264.37 91.1,428.69l0 1028.87c0,40.5 -12.51,73.24 -37.52,98.25 -25,25 -57.75,37.51 -98.24,37.51zm-2500.74 0c-42.87,0 -76.8,-12.51 -101.81,-37.51 -25,-25.01 -37.51,-57.75 -37.51,-98.25l0 -1679.06c0,-40.49 12.51,-73.83 37.51,-100.03 25.01,-26.2 58.95,-39.3 101.81,-39.3 40.5,0 73.24,13.1 98.25,39.3 25,26.2 37.51,59.55 37.51,100.03l0 1679.06c0,40.5 -12.51,73.24 -37.51,98.25 -25.01,25 -57.75,37.51 -98.25,37.51zm1253.94 0c-40.49,0 -73.82,-12.51 -100.02,-37.51 -26.2,-25.01 -39.3,-57.75 -39.3,-98.25l0 -1028.87c0,-169.1 -44.06,-303.06 -132.18,-401.9 -88.12,-98.84 -201.25,-148.26 -339.39,-148.26 -147.66,0 -269.13,48.22 -364.39,144.68 -95.26,96.46 -142.9,222.09 -142.9,376.9l-196.49 0c4.77,-152.43 38.7,-287.58 101.81,-405.47 63.12,-117.9 149.45,-210.18 259.01,-276.86 109.55,-66.69 233.4,-100.03 371.54,-100.03 140.52,0 264.96,33.34 373.32,100.03 108.37,66.68 192.91,160.76 253.64,282.22 60.73,121.46 91.1,264.37 91.1,428.69l0 1028.87c0,40.5 -12.51,73.24 -37.51,98.25 -25.01,25 -57.75,37.51 -98.25,37.51z" class="fil1"/><path id="3" d="M17578 4608.51c-185.77,0 -353.09,-42.87 -501.94,-128.61 -148.85,-85.74 -266.75,-203.04 -353.68,-351.89 -86.93,-148.85 -131.59,-316.17 -133.97,-501.93l0 -1686.21c0,-42.88 12.51,-76.81 37.51,-101.81 25.01,-25.01 58.95,-37.52 101.81,-37.52 40.5,0 73.24,12.51 98.25,37.52 25,25 37.51,58.94 37.51,101.81l0 1050.3c78.59,-111.93 182.79,-201.85 312.59,-269.71 129.8,-67.88 274.48,-101.81 434.06,-101.81 183.38,0 347.72,43.46 493,130.39 145.28,86.93 260.2,205.42 344.74,355.46 84.55,150.05 126.83,319.14 126.83,507.3 0,190.53 -43.47,360.81 -130.4,510.86 -86.93,150.05 -205.42,268.53 -355.46,355.46 -150.05,86.94 -320.34,130.4 -510.86,130.4zm0 -250.08c138.13,0 261.98,-32.74 371.53,-98.24 109.56,-65.5 195.89,-154.21 259.01,-266.15 63.11,-111.94 94.66,-239.36 94.66,-382.25 0,-140.52 -31.55,-267.35 -94.66,-380.47 -63.12,-113.13 -149.45,-201.85 -259.01,-266.15 -109.55,-64.3 -233.4,-96.46 -371.53,-96.46 -135.76,0 -258.41,32.15 -367.97,96.46 -109.55,64.3 -195.29,153.02 -257.22,266.15 -61.91,113.13 -92.88,239.95 -92.88,380.47 0,142.9 30.97,270.31 92.88,382.25 61.92,111.94 147.67,200.65 257.22,266.15 109.56,65.5 232.22,98.24 367.97,98.24z" class="fil1"/><path id="4" d="M19975.14 4608.51c-183.39,0 -347.73,-43.46 -493.01,-130.4 -145.28,-86.93 -260.2,-205.41 -344.74,-355.46 -84.55,-150.05 -126.83,-319.14 -126.83,-507.29 0,-190.53 43.47,-360.82 130.4,-510.87 86.93,-150.04 205.42,-268.53 355.46,-355.46 150.05,-86.93 319.14,-130.39 507.3,-130.39 188.14,0 356.65,43.46 505.51,130.39 148.85,86.93 266.75,205.42 353.68,355.46 86.93,150.05 131.59,320.34 133.97,510.87l-110.75 85.73c0,171.49 -39.89,325.7 -119.68,462.64 -79.79,136.94 -188.15,245.31 -325.1,325.1 -136.94,79.79 -292.35,119.68 -466.2,119.68zm28.58 -250.08c138.13,0 261.38,-32.15 369.75,-96.46 108.37,-64.3 194.11,-153.01 257.22,-266.15 63.12,-113.13 94.67,-239.94 94.67,-380.46 0,-142.91 -31.55,-270.32 -94.67,-382.26 -63.11,-111.93 -148.85,-200.65 -257.22,-266.15 -108.37,-65.49 -231.62,-98.24 -369.75,-98.24 -135.76,0 -258.41,32.75 -367.96,98.24 -109.56,65.5 -196.49,154.22 -260.79,266.15 -64.3,111.94 -96.46,239.36 -96.46,382.26 0,140.52 32.15,267.34 96.46,380.46 64.3,113.14 151.23,201.85 260.79,266.15 109.55,64.3 232.21,96.46 367.96,96.46zm853.82 232.22c-40.49,0 -73.83,-12.51 -100.03,-37.51 -26.2,-25.01 -39.3,-57.75 -39.3,-98.25l0 -610.89 67.88 -282.22 210.78 53.59 0 839.52c0,40.5 -13.09,73.24 -39.3,98.25 -26.2,25 -59.53,37.51 -100.02,37.51z" class="fil1"/><path id="5" d="M21954.29 4590.64c-95.27,0 -180.41,-26.2 -255.44,-78.59 -75.02,-52.4 -133.37,-125.03 -175.05,-217.93 -41.68,-92.88 -62.52,-200.05 -62.52,-321.52l0 -2036.31c0,-40.49 12.51,-73.24 37.52,-98.24 25,-25.01 57.75,-37.52 98.24,-37.52 40.49,0 73.24,12.51 98.24,37.52 25.01,25 37.52,57.75 37.52,98.24l0 2036.31c0,102.41 20.83,185.77 62.51,250.08 41.68,64.3 94.67,96.46 158.98,96.46l89.31 0c35.73,0 64.3,12.51 85.74,37.51 21.44,25 32.15,57.75 32.15,98.24 0,40.5 -14.89,73.24 -44.66,98.25 -29.77,25 -68.47,37.51 -116.1,37.51l-46.44 0z" class="fil1"/><path id="6" d="M23293.97 4608.51c-183.39,0 -347.73,-43.46 -493.01,-130.4 -145.28,-86.93 -260.2,-205.41 -344.74,-355.46 -84.55,-150.05 -126.83,-319.14 -126.83,-507.29 0,-190.53 43.47,-360.82 130.4,-510.87 86.93,-150.04 205.42,-268.53 355.46,-355.46 150.05,-86.93 319.14,-130.39 507.3,-130.39 188.14,0 356.65,43.46 505.51,130.39 148.85,86.93 266.75,205.42 353.68,355.46 86.93,150.05 131.59,320.34 133.97,510.87l-110.75 85.73c0,171.49 -39.89,325.7 -119.68,462.64 -79.79,136.94 -188.15,245.31 -325.1,325.1 -136.94,79.79 -292.35,119.68 -466.2,119.68zm28.58 -250.08c138.13,0 261.38,-32.15 369.75,-96.46 108.37,-64.3 194.11,-153.01 257.22,-266.15 63.12,-113.13 94.67,-239.94 94.67,-380.46 0,-142.91 -31.55,-270.32 -94.67,-382.26 -63.11,-111.93 -148.85,-200.65 -257.22,-266.15 -108.37,-65.49 -231.62,-98.24 -369.75,-98.24 -135.76,0 -258.41,32.75 -367.96,98.24 -109.56,65.5 -196.49,154.22 -260.79,266.15 -64.3,111.94 -96.46,239.36 -96.46,382.26 0,140.52 32.15,267.34 96.46,380.46 64.3,113.14 151.23,201.85 260.79,266.15 109.55,64.3 232.21,96.46 367.96,96.46zm853.82 232.22c-40.49,0 -73.83,-12.51 -100.03,-37.51 -26.2,-25.01 -39.3,-57.75 -39.3,-98.25l0 -610.89 67.88 -282.22 210.78 53.59 0 839.52c0,40.5 -13.09,73.24 -39.3,98.25 -26.2,25 -59.53,37.51 -100.02,37.51z" class="fil1"/><g id="_419121128"><path d="M6761.48 2499.14c421.63,105.38 864.22,289.23 1215,548.49 260.35,192.43 538.56,481.78 556.38,824.18 3.85,73.98 -5,147.9 -25.74,219 -3.45,11.84 -36.46,-10.14 -41.12,-12.92 -32.98,-19.6 -65.31,-40.56 -98.16,-60.46 -112,-67.83 -227.27,-127.26 -349.78,-174 -372.25,-142.03 -752.15,-144.95 -1114.66,32.02 -0.83,0.41 -1.74,0.35 -2.52,-0.15 -0.78,-0.5 -1.21,-1.31 -1.17,-2.23 4.95,-171.89 11.02,-345.06 9.63,-517 -0.88,-109.5 -5.7,-217.85 -21.96,-326.25 -26.41,-176.15 -81.21,-355.22 -130.03,-526.44 -26.82,-6.66 -53.68,-13.06 -80.61,-19.17 -1.34,-0.3 -2.2,-1.59 -1.96,-2.94 0.22,-1.35 1.46,-2.28 2.82,-2.13l79.01 8.68c1.05,0.11 1.89,0.82 2.19,1.84 0.91,3.15 1.8,6.3 2.69,9.46z" class="fil2 str0"/></g><path d="M6677.3 2481.71c1054.46,239.26 2028.4,919.08 1827.35,1608.39 -12.18,41.8 -748.8,-633.66 -1602.37,-216.94 22.7,-788.29 17.68,-808.71 -145.97,-1382.76l-79.01 -8.68z" class="fil3 str1"/><path d="M6922.88 3370.71c567.74,50.93 1438.17,116.24 1575.71,720.83 4.66,20.48 -169.97,-127.27 -445.34,-237.03 -294.65,-117.44 -709.76,-196.75 -1150.96,18.64 19.94,-248.97 17.81,-235.88 22.7,-472.36l-2.11 -30.09z" class="fil4"/><path d="M681.26 2081.98c392.02,-160.67 1384.73,-916.95 1673.44,-1244.47 351,-398.2 662.06,-590.95 1274.63,-684.95 732.4,-112.43 1475.46,145.29 2063.98,674 363.29,326.4 689.34,708.59 874.3,1154.85 463.54,1118.39 457.19,1738.66 90.37,2986.1 -48.45,164.87 -110.28,307.96 -178.12,465.8 -140.55,327.02 -289.64,646.02 -449.31,960.49l-4264.68 0c505.11,-1004.41 977.5,-1782.06 873.36,-2062.39 -43.12,-116.05 -84.01,-178.28 -154.44,-222.99 -122.85,-78.04 -348.36,-101.64 -494.36,-132.91 -308.83,-66.16 -590.56,-142.95 -884.07,-267.08 -122.79,-51.92 -221.37,-98.72 -323.37,-160.8 -82.84,-33.32 -159.92,-72.25 -230.97,-115.49 -704.72,-428.82 -807.05,-1284.1 129.25,-1350.16z" class="fil3 str0"/><path d="M672.16 3465.72c-97.46,-68.49 -172.86,-117.12 -255,-205.3 -447.52,-480.49 -59.02,-823.37 457.28,-837.48 170.93,-4.68 323.62,61.56 510.01,123.15 310.68,102.61 599.51,91.9 892.3,-0.56 462.15,-145.94 860.48,-540.12 1369.64,-806.65 538.14,-281.67 1076.52,-338.21 1631.45,-48.11 1713.79,895.85 759.18,3131.93 9.75,4351.99l-215.66 351.05 -3305.82 0c506.4,-1007.67 981.14,-1788.15 876.76,-2069.12 -43.12,-116.04 -84.03,-178.28 -154.44,-222.99 -122.85,-78.02 -348.38,-101.64 -494.36,-132.91 -308.83,-66.15 -590.56,-142.96 -884.07,-267.08 -167.64,-70.89 -290.18,-132.21 -437.85,-235.98z" class="fil5"/><g id="_419121680"><path d="M3569.59 4708.07c517.19,103.03 1011.57,70.86 1354.22,-378.57 2.98,-3.9 8.59,-4.66 12.5,-1.68 3.9,2.98 4.66,8.59 1.68,12.5 -347.07,455.22 -847.7,489.66 -1371.88,385.23 -4.81,-0.96 -7.96,-5.67 -7,-10.48 0.96,-4.81 5.67,-7.96 10.48,-7z" class="fil2"/></g><path d="M3567.84 4716.81c523.84,104.36 1019.34,68.9 1363.05,-381.9" class="fil6"/><g id="_419138288"><path d="M3475.3 1394.97c-76.02,-118.31 -67.65,-179.57 -63.81,-313.07 3.23,-112.57 55.03,-218.17 137.2,-294.27 74.64,-69.14 176.96,-115.05 280.15,-104.96 58.04,5.66 110.63,28.69 154.83,66.64 132.77,113.98 111.52,378.25 72.83,531.32 -15.84,62.7 -223.07,115.68 -277.62,127.71 -70.72,15.61 -243.07,46.58 -301.05,-10.27l-1.44 -1.41 -1.08 -1.69z" class="fil2"/></g><path d="M3490.29 1385.33c-74.1,-115.31 -64.71,-173.85 -60.99,-302.92 8.19,-285.3 339.75,-493.88 542.75,-319.59 125.63,107.84 104.94,365.55 67.16,513.43 -16.82,68.18 -464.15,192.21 -548.92,109.07z" class="fil5"/><path d="M3968.76 1329.03c-82.92,38.31 -222.76,75.55 -332.27,82.74 -26.12,-323.89 358.79,-413.09 336.08,-95.1l-3.81 12.36z" class="fil7"/><ellipse cx="3875.46" cy="1236.48" class="fil5" rx="64.42" ry="61.65"/><path d="M4495.61 2072.55c227.6,236.59 392.7,630.6 460.35,947.76 53.24,249.66 65.65,524.6 -10.57,770.9 -297.61,961.93 -1028.3,1067.07 -1861.38,706.4 -119.27,-51.63 -223.17,-125.69 -327.85,-201.43 -77.59,-56.12 -157.39,-114.6 -243.52,-158.39 -10.75,-9.15 -22.23,-17.59 -34.63,-25.47 -43.98,-27.93 -101.13,-48.89 -163.05,-65.72l43.42 -6.29c190.7,-27.61 381.14,-28.8 573.23,-32.74 172.82,-3.54 351.37,-9.4 519.65,-52.03 177.55,-44.99 343.79,-122.73 489.01,-234.77 499.96,-385.72 604.2,-1039.75 520.75,-1631.37l-8.72 -61.87 43.31 45.03z" class="fil2"/><path d="M2361.28 4060.33c391.8,-56.73 765.24,-1.66 1094.95,-85.2 721.12,-182.69 1168.12,-872.63 1024.81,-1888.56 312.32,324.66 625.18,1116.46 445.04,1698.67 -325.76,1052.84 -1142.36,993.27 -1834.04,693.82 -276.73,-119.8 -464.12,-358.75 -730.76,-418.73z" class="fil8"/><path d="M3996.6 4663.6c-119.18,11.01 -242.48,3.62 -366.74,-17.69l2.09 -240.7 364.65 258.39z" class="fil5 str2"/><path d="M4574.14 4405.1c-124.32,119.78 -265.8,193.38 -417.01,231.37l-19.84 -383.24 436.85 151.87z" class="fil5 str2"/><path d="M4911.55 3849.52c-52.37,144.64 -114.94,265.75 -185.72,366.26l-153.01 -351.28 338.74 -14.99z" class="fil5 str2"/><path d="M4976.15 3315.01c5.55,96.02 2.94,191.18 -9.47,283.25l-225.26 -180.94 234.73 -102.31z" class="fil5 str2"/><path d="M4389.32 3138.85c52.12,-135.65 88.04,-285.2 105.71,-447.51l0.1 -0.07 291.88 410.69 -397.66 37.04 -0.04 -0.15z" class="fil5 str2"/><path d="M4495.07 2691.07c9.82,-90.33 14.07,-184.54 12.23,-282.56l0.01 0 293.81 219.8 -305.98 62.95 -0.07 -0.19z" class="fil5 str2"/><path d="M4504.78 2335.97c-3.88,-80.76 -16,-180.42 -28.06,-265.91 56.94,59.2 118.24,150.5 172.24,236.67l-144.08 29.33 -0.09 -0.09z" class="fil5 str2"/><path d="M4155.92 3540.87c96.18,-115.32 174.89,-249.86 233.32,-401.83l0.12 -0.04 257.07 437.9 -490.5 -36.01 -0.01 -0.02z" class="fil5 str2"/><path d="M3434.91 3980.31c7.13,-1.66 14.24,-3.38 21.32,-5.17 134.81,-34.15 260.02,-86.04 373.6,-154.45l0.01 0.01 58.57 482.02 -453.5 -322.4z" class="fil5 str2"/><path d="M2999.47 4026.18l-8.8 402.12c-224.21,-126.82 -396.58,-315.61 -629.4,-367.97 220.02,-31.86 434.24,-28.46 638.2,-34.15z" class="fil9 str2"/><path d="M2999.47 4026.18l417.78 358.2 17.68 -404.06 -0.02 -0.02c-138.25,32.4 -284.01,41.66 -435.44,45.87z" class="fil5 str2"/><path d="M3449.37 4605.77l-201.19 -208.08 -48.65 125.45c82.33,31.9 165.94,59.93 249.84,82.63z" class="fil5 str2"/><path d="M3829.84 3820.69l472.73 212.23 -146.63 -492.03 -0.02 0c-93.21,111.75 -202.77,205.5 -326.06,279.77l-0.01 0.03z" class="fil5 str2"/><g id="_419132528"><path d="M4704.59 2233.52c-80.66,-70.06 -167.04,-155.03 -259.66,-208.07 -81.14,-46.46 -180.4,-73.67 -269.43,-101.47 -4.69,-1.46 -7.31,-6.48 -5.85,-11.16 1.46,-4.69 6.48,-7.31 11.16,-5.85 90.56,28.27 190.42,55.74 272.98,103.01 94.01,53.83 180.68,139.04 262.49,210.1 3.71,3.21 4.1,8.86 0.88,12.57 -3.21,3.71 -8.86,4.1 -12.57,0.88z" class="fil2"/></g><path d="M4710.43 2226.79c-77.86,-67.63 -171.78,-157.95 -261.08,-209.09 -79.88,-45.74 -183.6,-74.89 -271.2,-102.24" class="fil6"/><g id="_419124224"><path d="M1614.94 3593.26c-303.19,106.51 -548.45,55.69 -840.96,-52.71 -4.6,-1.7 -6.97,-6.85 -5.26,-11.45 1.7,-4.6 6.85,-6.97 11.45,-5.26 288.43,106.88 529.87,157.64 828.85,52.61 4.64,-1.63 9.74,0.82 11.36,5.45 1.63,4.64 -0.82,9.74 -5.45,11.36z" class="fil2"/></g><path d="M1611.98 3584.86c-301.28,105.84 -544.4,54.99 -834.91,-52.66" class="fil6"/><path d="M681.95 2068.8c303.11,6.98 546.9,61.28 822.4,188.82 5.06,2.35 7.26,8.37 4.93,13.43 -2.34,5.06 -8.37,7.26 -13.43,4.93 -271.53,-125.7 -511.47,-179.54 -809.57,-186.85 -1.54,-0.03 -71.05,0.47 -72.61,0.46 -2.12,-0.02 66.97,-20.82 68.27,-20.79z" class="fil2"/><path d="M2834.82 6393.8l27.38 -51.77c437.71,-826.79 486.34,-705.21 778.15,-1337.46 291.81,-632.24 48.01,-1639.95 -1094.27,-1531.99 -784.65,74.16 -1522.63,-385.91 -1897.49,-679.29 -5.38,-0.12 5.69,2.09 0,0l-244.54 -239.39 -64.59 50.63c-0.98,-0.71 -21.86,20.13 -43.76,47.09 -27.42,33.76 -47.93,75.85 -54.25,95 -5.74,15.09 -6.14,12.61 -16.75,64.39 -10.61,51.74 -0.45,100.74 10.21,151.36l15.4 47.01c9.25,22.84 19.56,44.46 30.67,66.41 7.51,12.11 13.39,24.48 18.94,32.96 30.17,46.1 32.66,49.14 74.98,103.75 14.88,19.2 31.92,38.47 50.97,57.13 18.97,18.6 34.46,35.86 56.1,54 31.46,26.39 61.54,50.25 97.37,76.81 23.55,15.79 48.02,33.77 70.84,49.87 33.86,23.87 68.3,46.77 102.85,69.62 77.74,46.99 126.81,75.7 174.46,102.57 11.58,4.88 15.14,6.8 29.15,14.41 78.7,32.8 157.14,66.11 235.96,98.58 106.27,43.77 135.3,45.8 228.66,82.56 32.98,12.99 140.29,52.86 180.59,54.91l512.72 126.26c47.6,17.4 71.17,6.73 129.89,24.97 69.9,21.74 40.2,22.7 116.82,36.1 189.52,33.15 293.99,203.44 293.99,385.54 -3.39,62.09 -4.29,52.91 -18.73,121.63 -6.21,28.47 -4.2,22.36 -28.71,95.56 -24.78,73.99 -105.47,279.68 -140.21,350.68 -20.53,41.95 -50.5,96.78 -66.75,137.44l-351.47 691.05c-96.1,182.89 -190.64,366.94 -283.39,551.58l1068.81 0z" class="fil10"/><path d="M2834.73 6393.8l27.47 -51.77c437.71,-826.79 486.34,-705.21 778.15,-1337.46 291.81,-632.24 48.02,-1639.95 -1094.27,-1531.99 -784.65,74.17 -1505.95,-382.67 -1880.82,-676.05" class="fil11"/><g id="_419119736"><path d="M2503.04 1462.08c-76.01,-118.3 -67.65,-179.57 -63.81,-313.06 3.23,-112.57 55.03,-218.17 137.2,-294.27 74.64,-69.15 176.96,-115.05 280.16,-104.96 58.03,5.67 110.62,28.7 154.82,66.64 132.78,113.98 111.52,378.24 72.83,531.32 -15.84,62.7 -223.07,115.67 -277.62,127.71 -70.72,15.6 -243.06,46.57 -301.05,-10.28l-1.44 -1.41 -1.08 -1.69z" class="fil2"/></g><path d="M2518.04 1452.45c-74.09,-115.3 -64.7,-173.85 -60.99,-302.91 8.19,-285.31 339.75,-493.88 542.75,-319.59 125.64,107.83 104.95,365.55 67.16,513.43 -16.81,68.18 -464.14,192.19 -548.92,109.06z" class="fil5"/><path d="M2996.52 1396.15c-82.93,38.32 -222.77,75.55 -332.27,82.75 -26.12,-323.89 358.78,-413.1 336.07,-95.1l-3.8 12.35z" class="fil7"/><ellipse cx="2903.21" cy="1303.61" class="fil5" rx="64.42" ry="61.65"/></g></svg>